<svg xmlns="http://www.w3.org/2000/svg" viewBox="0 0 32 32">
  <rect width="32" height="32" rx="4" fill="#0f0f23"/>
  <circle cx="16" cy="16" r="11" fill="#e0e0ff" stroke="#6abe30" stroke-width="1.5"/>
  <!-- Pentagon pattern -->
  <polygon points="16,9 19,12 18,16 14,16 13,12" fill="#1a1a3e"/>
  <polygon points="11,11 13,12 14,16 11,18 8,14" fill="#1a1a3e"/>
  <polygon points="21,11 24,14 21,18 18,16 19,12" fill="#1a1a3e"/>
  <polygon points="14,16 18,16 20,20 16,23 12,20" fill="#1a1a3e"/>
  <!-- Seam lines -->
  <line x1="16" y1="5" x2="16" y2="9" stroke="#6abe30" stroke-width="0.5" opacity="0.6"/>
  <line x1="7" y1="13" x2="11" y2="11" stroke="#6abe30" stroke-width="0.5" opacity="0.6"/>
  <line x1="25" y1="13" x2="21" y2="11" stroke="#6abe30" stroke-width="0.5" opacity="0.6"/>
  <line x1="10" y1="22" x2="12" y2="20" stroke="#6abe30" stroke-width="0.5" opacity="0.6"/>
  <line x1="22" y1="22" x2="20" y2="20" stroke="#6abe30" stroke-width="0.5" opacity="0.6"/>
</svg>
